<svg width="100%" height="180" viewBox="0 0 800 180" xmlns="http://www.w3.org/2000/svg">
  <defs>
    <linearGradient id="cubeGrad" x1="0%" y1="0%" x2="100%" y2="100%">
      <stop offset="0%" stop-color="#7e22ce" stop-opacity="0.9" />
      <stop offset="100%" stop-color="#3b0764" stop-opacity="0.9" />
    </linearGradient>
    <linearGradient id="glowGrad" x1="0%" y1="0%" x2="100%" y2="100%">
      <stop offset="0%" stop-color="#a855f7" />
      <stop offset="100%" stop-color="#6b21a8" />
    </linearGradient>
    <filter id="glow">
      <feGaussianBlur stdDeviation="3" result="coloredBlur"/>
      <feMerge>
        <feMergeNode in="coloredBlur"/>
        <feMergeNode in="SourceGraphic"/>
      </feMerge>
    </filter>
  </defs>

  <!-- Background -->
  <rect width="100%" height="100%" fill="#0d1117" rx="10"/>

  <!-- Connecting Energy Beams -->
  <path d="M 220 90 L 400 70 L 580 100 Z" stroke="#a855f7" stroke-width="1.5" stroke-dasharray="6,6" fill="none" opacity="0.6">
    <animate attributeName="stroke-dashoffset" values="0;24" dur="3s" repeatCount="indefinite" />
    <animate attributeName="opacity" values="0.2;0.8;0.2" dur="4s" repeatCount="indefinite" />
  </path>
  <path d="M 150 110 L 400 70 M 400 70 L 650 60" stroke="#c084fc" stroke-width="1" fill="none" opacity="0.4">
    <animate attributeName="opacity" values="0.1;0.7;0.1" dur="5s" repeatCount="indefinite" />
  </path>

  <!-- Cube 1 (Left Node) -->
  <g transform="translate(220, 90)">
    <animateTransform attributeName="transform" type="translate" values="220,90; 210,75; 230,100; 220,90" dur="6s" repeatCount="indefinite" />
    <g filter="url(#glow)">
      <polygon points="0,-25 22,-12 0,0 -22,-12" fill="#c084fc" opacity="0.8"/>
      <polygon points="-22,-12 0,0 0,25 -22,13" fill="url(#cubeGrad)"/>
      <polygon points="0,0 22,-12 22,13 0,25" fill="#581c87"/>
    </g>
  </g>

  <!-- Cube 2 (Center Master Node) -->
  <g transform="translate(400, 70)">
    <animateTransform attributeName="transform" type="translate" values="400,70; 400,55; 400,80; 400,70" dur="5s" repeatCount="indefinite" />
    <g filter="url(#glow)">
      <polygon points="0,-35 30,-17 0,0 -30,-17" fill="#d8b4fe"/>
      <polygon points="-30,-17 0,0 0,35 -30,18" fill="url(#glowGrad)"/>
      <polygon points="0,0 30,-17 30,18 0,35" fill="#3b0764"/>
    </g>
  </g>

  <!-- Cube 3 (Right Node) -->
  <g transform="translate(580, 100)">
    <animateTransform attributeName="transform" type="translate" values="580,100; 595,110; 570,85; 580,100" dur="7s" repeatCount="indefinite" />
    <g filter="url(#glow)">
      <polygon points="0,-22 20,-11 0,0 -20,-11" fill="#a855f7" opacity="0.8"/>
      <polygon points="-20,-11 0,0 0,22 -20,11" fill="url(#cubeGrad)"/>
      <polygon points="0,0 20,-11 20,11 0,22" fill="#3b0764"/>
    </g>
  </g>

  <!-- Connection Spheres -->
  <circle cx="220" cy="90" r="3" fill="#e9d5ff" filter="url(#glow)">
    <animate attributeName="r" values="2;5;2" dur="3s" repeatCount="indefinite" />
  </circle>
  <circle cx="400" cy="70" r="4" fill="#ffffff" filter="url(#glow)">
    <animate attributeName="r" values="3;6;3" dur="2.5s" repeatCount="indefinite" />
  </circle>
  <circle cx="580" cy="100" r="3" fill="#e9d5ff" filter="url(#glow)">
    <animate attributeName="r" values="2;5;2" dur="3.5s" repeatCount="indefinite" />
  </circle>
</svg>
